<svg width="24" height="24" viewBox="0 0 24 24" fill="none" xmlns="http://www.w3.org/2000/svg">
<path d="M9.02999 2.31L11.36 4.27C11.71 4.57 12.29 4.57 12.64 4.27L14.97 2.31C15.51 2.04 16.17 2.31 16.37 2.89L16.81 4.22C16.92 4.54 16.81 5.01 16.57 5.25L14.3 7.53C14.13 7.69 14 8.01 14 8.24V11.09C14 11.51 14.31 11.71 14.7 11.55L19.61 9.43C20.38 9.1 21.01 9.51 21.01 10.35V11.64C21.01 12.31 20.51 13.08 19.89 13.34L14.3 15.75C14.14 15.82 14 16.03 14 16.21V19.21C14 20.15 13.31 21.26 12.47 21.69C12.17 21.84 11.82 21.84 11.52 21.69C10.68 21.26 9.98999 20.14 9.98999 19.2V16.2C9.98999 16.02 9.84999 15.81 9.68999 15.74L4.10999 13.33C3.48999 13.08 2.98999 12.31 2.98999 11.64V10.35C2.98999 9.51 3.61999 9.1 4.38999 9.43L9.29999 11.55C9.67999 11.72 9.99999 11.51 9.99999 11.09V8.24C9.99999 8.01 9.86999 7.69 9.70999 7.53L7.43999 5.25C7.19999 5.01 7.08999 4.55 7.19999 4.22L7.63999 2.89C7.81999 2.31 8.47999 2.03 9.02999 2.31Z" stroke="#00B06C" stroke-width="1.5" stroke-linecap="round" stroke-linejoin="round"/>
</svg>
