<svg xmlns="http://www.w3.org/2000/svg" style="display: none;">
  <symbol id="arrow-left-icon" viewBox="0 0 24 24">
    <path
      d="M15 19.9201L8.47997 13.4001C7.70997 12.6301 7.70997 11.3701 8.47997 10.6001L15 4.08008"
      stroke="#030712"
      stroke-width="1.5"
      stroke-miterlimit="10"
      stroke-linecap="round"
      stroke-linejoin="round"
    />
  </symbol>

  <symbol id="ticket-icon" viewBox="0 0 24 24">
    <path
      d="M14 11C14 10.4477 14.4477 10 15 10C15.5523 10 16 10.4477 16 11V13C16 13.5523 15.5523 14 15 14C14.4477 14 14 13.5523 14 13V11Z"
      stroke="#00B06C"
      stroke-width="1.5"
    />
    <path
      d="M14.0079 19.0029L13.2579 19.0007V19.0007L14.0079 19.0029ZM14.0137 17L14.7637 17.0022V17H14.0137ZM3.14958 18.8284L2.61991 19.3594H2.61991L3.14958 18.8284ZM3.14958 5.17157L2.61991 4.64058L2.61991 4.64058L3.14958 5.17157ZM2.95308 10.2537L2.58741 10.9085H2.58741L2.95308 10.2537ZM2.01058 8.98947L1.26124 8.95797L2.01058 8.98947ZM2.95308 13.7463L2.58741 13.0915L2.58741 13.0915L2.95308 13.7463ZM2.01058 15.0105L2.75992 14.979L2.01058 15.0105ZM21.0469 10.2537L21.4126 10.9085L21.0469 10.2537ZM21.9894 8.98947L22.7388 8.95797V8.95797L21.9894 8.98947ZM20.8504 5.17157L21.3801 4.64058L21.3801 4.64058L20.8504 5.17157ZM21.0469 13.7463L20.6812 14.4012V14.4012L21.0469 13.7463ZM21.9894 15.0105L22.7388 15.042V15.042L21.9894 15.0105ZM20.8504 18.8284L21.3801 19.3594L21.3801 19.3594L20.8504 18.8284ZM21.9437 14.332L22.5981 13.9656L22.5981 13.9656L21.9437 14.332ZM21.9437 9.66803L22.5981 10.0344L22.5981 10.0344L21.9437 9.66803ZM2.05634 14.332L1.4019 13.9656L1.4019 13.9656L2.05634 14.332ZM2.05634 9.66802L2.71079 9.30168L2.71078 9.30168L2.05634 9.66802ZM14.0137 7H14.7637L14.7637 6.99782L14.0137 7ZM14.0064 4.49855L13.2564 4.50073V4.50073L14.0064 4.49855ZM16.5278 4.0189L16.5471 3.26915L16.5278 4.0189ZM17.0336 19.9642L17.0653 20.7135H17.0653L17.0336 19.9642ZM13.8595 19.8541L13.3299 19.323L13.3299 19.323L13.8595 19.8541ZM14.7579 19.0051L14.7637 17.0022L13.2637 16.9978L13.2579 19.0007L14.7579 19.0051ZM15.0162 16.75C15.1574 16.75 15.2687 16.8637 15.2687 17H16.7687C16.7687 16.0317 15.9823 15.25 15.0162 15.25V16.75ZM15.0162 15.25C14.0501 15.25 13.2637 16.0317 13.2637 17H14.7637C14.7637 16.8637 14.875 16.75 15.0162 16.75V15.25ZM9.99502 4.75H13.5052V3.25H9.99502V4.75ZM13.0079 19.25H9.99502V20.75H13.0079V19.25ZM9.99502 19.25C8.08355 19.25 6.72521 19.2484 5.69469 19.1102C4.68554 18.9749 4.10384 18.721 3.67925 18.2974L2.61991 19.3594C3.3698 20.1074 4.32051 20.4393 5.4953 20.5969C6.64871 20.7516 8.12585 20.75 9.99502 20.75V19.25ZM9.99502 3.25C8.12585 3.25 6.64871 3.24841 5.4953 3.4031C4.32051 3.56066 3.3698 3.89255 2.61991 4.64058L3.67925 5.70256C4.10384 5.27902 4.68554 5.02513 5.69469 4.88979C6.72521 4.75159 8.08355 4.75 9.99502 4.75V3.25ZM2.58741 10.9085C2.97311 11.1239 3.23007 11.533 3.23007 12H4.73007C4.73007 10.9664 4.1586 10.0678 3.31876 9.59884L2.58741 10.9085ZM2.75992 9.02097C2.83795 7.16494 3.09146 6.28889 3.67925 5.70256L2.61991 4.64058C1.59036 5.66758 1.34012 7.08185 1.26124 8.95797L2.75992 9.02097ZM3.23007 12C3.23007 12.467 2.97311 12.8761 2.58741 13.0915L3.31876 14.4012C4.1586 13.9322 4.73007 13.0336 4.73007 12H3.23007ZM1.26124 15.042C1.34012 16.9182 1.59036 18.3324 2.61991 19.3594L3.67925 18.2974C3.09146 17.7111 2.83795 16.8351 2.75992 14.979L1.26124 15.042ZM20.7699 12C20.7699 11.533 21.0269 11.1239 21.4126 10.9085L20.6812 9.59884C19.8414 10.0678 19.2699 10.9664 19.2699 12H20.7699ZM22.7388 8.95797C22.6599 7.08185 22.4096 5.66758 21.3801 4.64058L20.3207 5.70256C20.9085 6.28889 21.1621 7.16494 21.2401 9.02097L22.7388 8.95797ZM21.4126 13.0915C21.0269 12.8761 20.7699 12.467 20.7699 12H19.2699C19.2699 13.0336 19.8414 13.9322 20.6812 14.4012L21.4126 13.0915ZM21.2401 14.979C21.1621 16.8351 20.9085 17.7111 20.3207 18.2974L21.3801 19.3594C22.4096 18.3324 22.6599 16.9182 22.7388 15.042L21.2401 14.979ZM20.6812 14.4012C20.9652 14.5597 21.1507 14.6636 21.2761 14.7427C21.3379 14.7817 21.3653 14.8024 21.3735 14.8093C21.388 14.8213 21.3375 14.7846 21.2892 14.6983L22.5981 13.9656C22.5153 13.8177 22.4043 13.7154 22.3304 13.6542C22.2503 13.5878 22.1613 13.5276 22.0764 13.4741C21.9087 13.3683 21.6804 13.2411 21.4126 13.0915L20.6812 14.4012ZM22.7388 15.042C22.746 14.8706 22.7541 14.6937 22.7476 14.5458C22.741 14.3959 22.7178 14.1795 22.5981 13.9656L21.2892 14.6983C21.2386 14.6079 21.2461 14.5457 21.249 14.6117C21.2503 14.6404 21.2505 14.6822 21.2488 14.7464C21.2472 14.8104 21.244 14.8847 21.2401 14.979L22.7388 15.042ZM21.4126 10.9085C21.6804 10.7589 21.9087 10.6317 22.0764 10.5259C22.1613 10.4724 22.2503 10.4122 22.3304 10.3458C22.4043 10.2846 22.5153 10.1823 22.5981 10.0344L21.2892 9.30168C21.3375 9.21543 21.388 9.17871 21.3735 9.19072C21.3653 9.19756 21.3379 9.21832 21.2761 9.25725C21.1507 9.33637 20.9652 9.44028 20.6812 9.59884L21.4126 10.9085ZM21.2401 9.02097C21.244 9.11528 21.2472 9.18961 21.2488 9.25357C21.2505 9.31779 21.2503 9.35964 21.249 9.38827C21.2461 9.45428 21.2386 9.39206 21.2892 9.30169L22.5981 10.0344C22.7178 9.82054 22.741 9.60408 22.7476 9.45419C22.7541 9.30634 22.746 9.12945 22.7388 8.95797L21.2401 9.02097ZM2.58741 13.0915C2.31959 13.2411 2.0913 13.3683 1.92358 13.4741C1.83872 13.5276 1.74971 13.5878 1.66957 13.6542C1.59566 13.7154 1.48474 13.8177 1.4019 13.9656L2.71078 14.6983C2.6625 14.7846 2.61198 14.8213 2.62648 14.8093C2.63474 14.8024 2.66215 14.7817 2.72387 14.7427C2.84929 14.6636 3.03482 14.5597 3.31876 14.4012L2.58741 13.0915ZM2.75992 14.979C2.75595 14.8847 2.75285 14.8104 2.7512 14.7464C2.74954 14.6822 2.74973 14.6404 2.75099 14.6117C2.75389 14.5457 2.76137 14.6079 2.71078 14.6983L1.4019 13.9656C1.28221 14.1795 1.25903 14.3959 1.25244 14.5458C1.24593 14.6937 1.25403 14.8706 1.26124 15.042L2.75992 14.979ZM3.31876 9.59884C3.03482 9.44028 2.84929 9.33637 2.72386 9.25725C2.66214 9.21832 2.63474 9.19756 2.62648 9.19072C2.61198 9.17871 2.66251 9.21543 2.71079 9.30168L1.4019 10.0344C1.48473 10.1823 1.59565 10.2846 1.66956 10.3458C1.74971 10.4122 1.83872 10.4724 1.92357 10.5259C2.0913 10.6317 2.31959 10.7589 2.58741 10.9085L3.31876 9.59884ZM1.26124 8.95797C1.25403 9.12945 1.24593 9.30634 1.25244 9.45419C1.25903 9.60408 1.28221 9.82054 1.4019 10.0344L2.71078 9.30168C2.76137 9.39206 2.75389 9.45428 2.75099 9.38827C2.74973 9.35964 2.74954 9.31779 2.7512 9.25357C2.75285 9.18961 2.75595 9.11528 2.75992 9.02097L1.26124 8.95797ZM14.7637 6.99782L14.7564 4.49637L13.2564 4.50073L13.2637 7.00218L14.7637 6.99782ZM15.0162 7.25C14.875 7.25 14.7637 7.13631 14.7637 7H13.2637C13.2637 7.96826 14.0501 8.75 15.0162 8.75V7.25ZM15.2687 7C15.2687 7.13631 15.1574 7.25 15.0162 7.25V8.75C15.9823 8.75 16.7687 7.96826 16.7687 7H15.2687ZM15.2687 4.51618V7H16.7687V4.51618H15.2687ZM16.5084 4.76865C18.6966 4.82509 19.6778 5.06124 20.3208 5.70256L21.3801 4.64058C20.2676 3.53084 18.6939 3.32452 16.5471 3.26915L16.5084 4.76865ZM16.7687 4.51618C16.7687 4.656 16.6534 4.77239 16.5084 4.76865L16.5471 3.26915C15.8429 3.25099 15.2687 3.81835 15.2687 4.51618H16.7687ZM13.5052 4.75C13.3698 4.75 13.2568 4.64027 13.2564 4.50073L14.7564 4.49637C14.7544 3.80569 14.1931 3.25 13.5052 3.25V4.75ZM17.0653 20.7135C18.9399 20.6343 20.353 20.384 21.3801 19.3594L20.3208 18.2974C19.7336 18.8831 18.8563 19.1365 17.002 19.2148L17.0653 20.7135ZM15.2687 17V18.9765H16.7687V17H15.2687ZM13.2579 19.0007C13.2575 19.121 13.2572 19.2136 13.255 19.2926C13.2528 19.3721 13.249 19.4192 13.245 19.4481C13.2411 19.4764 13.2396 19.4669 13.2513 19.4387C13.2654 19.4045 13.2911 19.3617 13.3299 19.323L14.389 20.3852C14.6246 20.1502 14.701 19.8709 14.7311 19.6521C14.7582 19.4548 14.7573 19.219 14.7579 19.0051L13.2579 19.0007ZM13.0079 20.75C13.2218 20.75 13.4576 20.7516 13.6549 20.7251C13.8739 20.6957 14.1534 20.6201 14.389 20.3852L13.3299 19.323C13.3687 19.2843 13.4116 19.2587 13.4458 19.2447C13.4741 19.2331 13.4836 19.2346 13.4553 19.2384C13.4264 19.2423 13.3792 19.246 13.2998 19.248C13.2208 19.25 13.1282 19.25 13.0079 19.25V20.75ZM17.002 19.2148C16.8812 19.2199 16.7889 19.2238 16.7101 19.225C16.631 19.2262 16.5849 19.2244 16.5575 19.2217C16.5309 19.2191 16.5426 19.2175 16.5734 19.2292C16.6103 19.2433 16.6536 19.2685 16.6917 19.305L15.6536 20.3878C15.8978 20.6219 16.183 20.6921 16.4108 20.7145C16.6127 20.7344 16.8518 20.7225 17.0653 20.7135L17.002 19.2148ZM15.2687 18.9765C15.2687 19.1953 15.267 19.4374 15.295 19.6397C15.3263 19.8655 15.407 20.1514 15.6536 20.3878L16.6917 19.305C16.7313 19.343 16.7584 19.3863 16.7737 19.4221C16.7863 19.4516 16.7848 19.4622 16.7808 19.4337C16.7768 19.4046 16.7729 19.3566 16.7708 19.2753C16.7687 19.1945 16.7687 19.0997 16.7687 18.9765H15.2687Z"
      fill="#00B06C"
    />
  </symbol>

  <symbol id="location-from-icon" viewBox="0 0 24 24">
    <path
      fill-rule="evenodd"
      clip-rule="evenodd"
      d="M3.25 10.1433C3.25 5.24427 7.15501 1.25 12 1.25C16.845 1.25 20.75 5.24427 20.75 10.1433C20.75 12.5084 20.076 15.0479 18.8844 17.2419C17.6944 19.4331 15.9556 21.3372 13.7805 22.3539C12.6506 22.882 11.3494 22.882 10.2195 22.3539C8.04437 21.3372 6.30562 19.4331 5.11556 17.2419C3.92403 15.0479 3.25 12.5084 3.25 10.1433ZM12 2.75C8.00843 2.75 4.75 6.04748 4.75 10.1433C4.75 12.2404 5.35263 14.5354 6.4337 16.526C7.51624 18.5192 9.04602 20.1496 10.8546 20.995C11.5821 21.335 12.4179 21.335 13.1454 20.995C14.954 20.1496 16.4838 18.5192 17.5663 16.526C18.6474 14.5354 19.25 12.2404 19.25 10.1433C19.25 6.04748 15.9916 2.75 12 2.75ZM12 7.75C10.7574 7.75 9.75 8.75736 9.75 10C9.75 11.2426 10.7574 12.25 12 12.25C13.2426 12.25 14.25 11.2426 14.25 10C14.25 8.75736 13.2426 7.75 12 7.75ZM8.25 10C8.25 7.92893 9.92893 6.25 12 6.25C14.0711 6.25 15.75 7.92893 15.75 10C15.75 12.0711 14.0711 13.75 12 13.75C9.92893 13.75 8.25 12.0711 8.25 10Z"
    />
  </symbol>

  <symbol id="location-to-icon" viewBox="0 0 24 24">
    <path
      fill-rule="evenodd"
      clip-rule="evenodd"
      d="M4.25 8.51464C4.25 4.45264 7.77146 1.25 12 1.25C16.2285 1.25 19.75 4.45264 19.75 8.51464C19.75 12.3258 17.3871 16.8 13.5748 18.4292C12.574 18.8569 11.426 18.8569 10.4252 18.4292C6.61289 16.8 4.25 12.3258 4.25 8.51464ZM12 2.75C8.49655 2.75 5.75 5.38076 5.75 8.51464C5.75 11.843 7.85543 15.6998 11.0147 17.0499C11.639 17.3167 12.361 17.3167 12.9853 17.0499C16.1446 15.6998 18.25 11.843 18.25 8.51464C18.25 5.38076 15.5034 2.75 12 2.75ZM12 7.75C11.3096 7.75 10.75 8.30964 10.75 9C10.75 9.69036 11.3096 10.25 12 10.25C12.6904 10.25 13.25 9.69036 13.25 9C13.25 8.30964 12.6904 7.75 12 7.75ZM9.25 9C9.25 7.48122 10.4812 6.25 12 6.25C13.5188 6.25 14.75 7.48122 14.75 9C14.75 10.5188 13.5188 11.75 12 11.75C10.4812 11.75 9.25 10.5188 9.25 9ZM3.59541 14.9966C3.87344 15.3036 3.84992 15.7779 3.54288 16.0559C2.97519 16.57 2.75 17.0621 2.75 17.5C2.75 18.2637 3.47401 19.2048 5.23671 19.998C6.929 20.7596 9.31952 21.25 12 21.25C14.6805 21.25 17.071 20.7596 18.7633 19.998C20.526 19.2048 21.25 18.2637 21.25 17.5C21.25 17.0621 21.0248 16.57 20.4571 16.0559C20.1501 15.7779 20.1266 15.3036 20.4046 14.9966C20.6826 14.6895 21.1569 14.666 21.4639 14.9441C22.227 15.635 22.75 16.5011 22.75 17.5C22.75 19.2216 21.2354 20.5305 19.3788 21.3659C17.4518 22.2331 14.8424 22.75 12 22.75C9.15764 22.75 6.54815 22.2331 4.62116 21.3659C2.76457 20.5305 1.25 19.2216 1.25 17.5C1.25 16.5011 1.77305 15.635 2.53605 14.9441C2.84309 14.666 3.31738 14.6895 3.59541 14.9966Z"
      fill="#666F8D"
    />
  </symbol>

  <symbol id="swap-icon" viewBox="0 0 24 24">
    <path
      d="M16 18L16 6M16 6L20 10.125M16 6L12 10.125"
      stroke="#00B06C"
      stroke-width="1.5"
      stroke-linecap="round"
      stroke-linejoin="round"
    />
    <path
      d="M8 6L8 18M8 18L12 13.875M8 18L4 13.875"
      stroke="#00B06C"
      stroke-width="1.5"
      stroke-linecap="round"
      stroke-linejoin="round"
    />
  </symbol>

  <symbol id="calendar-icon" viewBox="0 0 24 24">
    <path d="M8 2V5" stroke="#00B06C" stroke-width="1.5" stroke-miterlimit="10" stroke-linecap="round"
          stroke-linejoin="round"/>
    <path d="M16 2V5" stroke="#00B06C" stroke-width="1.5" stroke-miterlimit="10" stroke-linecap="round"
          stroke-linejoin="round"/>
    <path d="M3.5 9.09001H20.5" stroke="#00B06C" stroke-width="1.5" stroke-miterlimit="10"
          stroke-linecap="round"
          stroke-linejoin="round"/>
    <path
      d="M21 8.5V17C21 20 19.5 22 16 22H8C4.5 22 3 20 3 17V8.5C3 5.5 4.5 3.5 8 3.5H16C19.5 3.5 21 5.5 21 8.5Z"
      stroke="#00B06C" stroke-width="1.5" stroke-miterlimit="10" stroke-linecap="round"
      stroke-linejoin="round"/>
    <path d="M15.6946 13.7H15.7036" stroke="#00B06C" stroke-width="2" stroke-linecap="round"
          stroke-linejoin="round"/>
    <path d="M15.6946 16.7H15.7036" stroke="#00B06C" stroke-width="2" stroke-linecap="round"
          stroke-linejoin="round"/>
    <path d="M11.9954 13.7H12.0043" stroke="#00B06C" stroke-width="2" stroke-linecap="round"
          stroke-linejoin="round"/>
    <path d="M11.9954 16.7H12.0043" stroke="#00B06C" stroke-width="2" stroke-linecap="round"
          stroke-linejoin="round"/>
    <path d="M8.29443 13.7H8.30342" stroke="#00B06C" stroke-width="2" stroke-linecap="round"
          stroke-linejoin="round"/>
    <path d="M8.29443 16.7H8.30342" stroke="#00B06C" stroke-width="2" stroke-linecap="round"
          stroke-linejoin="round"/>
  </symbol>

  <symbol id="calendar-inactive-icon" viewBox="0 0 24 24">
    <path d="M7.99997 2V5" stroke="#666F8D" stroke-width="1.5" stroke-miterlimit="10" stroke-linecap="round"
          stroke-linejoin="round"/>
    <path d="M16 2V5" stroke="#666F8D" stroke-width="1.5" stroke-miterlimit="10" stroke-linecap="round"
          stroke-linejoin="round"/>
    <path d="M3.49997 9.09009H20.5" stroke="#666F8D" stroke-width="1.5" stroke-miterlimit="10" stroke-linecap="round"
          stroke-linejoin="round"/>
    <path d="M21 8.5V17C21 20 19.5 22 16 22H8C4.5 22 3 20 3 17V8.5C3 5.5 4.5 3.5 8 3.5H16C19.5 3.5 21 5.5 21 8.5Z"
          stroke="#666F8D" stroke-width="1.5" stroke-miterlimit="10" stroke-linecap="round" stroke-linejoin="round"/>
    <path d="M15.6945 13.7H15.7035" stroke="#666F8D" stroke-width="2" stroke-linecap="round" stroke-linejoin="round"/>
    <path d="M15.6945 16.7H15.7035" stroke="#666F8D" stroke-width="2" stroke-linecap="round" stroke-linejoin="round"/>
    <path d="M11.9954 13.7H12.0043" stroke="#666F8D" stroke-width="2" stroke-linecap="round" stroke-linejoin="round"/>
    <path d="M11.9954 16.7H12.0043" stroke="#666F8D" stroke-width="2" stroke-linecap="round" stroke-linejoin="round"/>
    <path d="M8.29443 13.7H8.30342" stroke="#666F8D" stroke-width="2" stroke-linecap="round" stroke-linejoin="round"/>
    <path d="M8.29443 16.7H8.30342" stroke="#666F8D" stroke-width="2" stroke-linecap="round" stroke-linejoin="round"/>
  </symbol>

  <symbol id="person-icon" viewBox="0 0 24 24">
    <path
      d="M10 10C12.3012 10 14.1667 8.13452 14.1667 5.83334C14.1667 3.53215 12.3012 1.66667 10 1.66667C7.69885 1.66667 5.83337 3.53215 5.83337 5.83334C5.83337 8.13452 7.69885 10 10 10Z"
      stroke="#00B06C"
      stroke-width="1.5"
      stroke-linecap="round"
      stroke-linejoin="round"
    />
    <path
      d="M17.1583 18.3333C17.1583 15.1083 13.95 12.5 10 12.5C6.05001 12.5 2.84167 15.1083 2.84167 18.3333"
      stroke="#00B06C"
      stroke-width="1.5"
      stroke-linecap="round"
      stroke-linejoin="round"
    />
  </symbol>

  <symbol id="filter-icon" viewBox="0 0 24 24">
    <path
      fill-rule="evenodd" clip-rule="evenodd"
      d="M18.25 7C18.25 9.07107 16.5711 10.75 14.5 10.75C12.4289 10.75 10.75 9.07107 10.75 7C10.75 4.92893 12.4289 3.25 14.5 3.25C16.5711 3.25 18.25 4.92893 18.25 7ZM14.5 9.25C15.7426 9.25 16.75 8.24264 16.75 7C16.75 5.75736 15.7426 4.75 14.5 4.75C13.2574 4.75 12.25 5.75736 12.25 7C12.25 8.24264 13.2574 9.25 14.5 9.25Z"
      fill="#00B06C"
    />
    <path fill-rule="evenodd" clip-rule="evenodd"
          d="M5.75 17C5.75 19.0711 7.42893 20.75 9.5 20.75C11.5711 20.75 13.25 19.0711 13.25 17C13.25 14.9289 11.5711 13.25 9.5 13.25C7.42893 13.25 5.75 14.9289 5.75 17ZM9.5 19.25C8.25736 19.25 7.25 18.2426 7.25 17C7.25 15.7574 8.25736 14.75 9.5 14.75C10.7426 14.75 11.75 15.7574 11.75 17C11.75 18.2426 10.7426 19.25 9.5 19.25Z"
          fill="#00B06C"/>
    <path
      d="M14.25 16.9585C14.25 16.5443 14.5858 16.2085 15 16.2085H22C22.4142 16.2085 22.75 16.5443 22.75 16.9585C22.75 17.3727 22.4142 17.7085 22 17.7085H15C14.5858 17.7085 14.25 17.3727 14.25 16.9585Z"
      fill="#00B06C"/>
    <path
      d="M9 6.20852C9.41421 6.20852 9.75 6.54431 9.75 6.95852C9.75 7.37273 9.41421 7.70852 9 7.70852L2 7.70852C1.58579 7.70852 1.25 7.37273 1.25 6.95852C1.25 6.54431 1.58579 6.20852 2 6.20852L9 6.20852Z"
      fill="#00B06C"/>
    <path
      d="M1.25 16.9585C1.25 16.5443 1.58579 16.2085 2 16.2085H4C4.41421 16.2085 4.75 16.5443 4.75 16.9585C4.75 17.3727 4.41421 17.7085 4 17.7085H2C1.58579 17.7085 1.25 17.3727 1.25 16.9585Z"
      fill="#00B06C"/>
    <path
      d="M22 6.20852C22.4142 6.20852 22.75 6.54431 22.75 6.95852C22.75 7.37273 22.4142 7.70852 22 7.70852H20C19.5858 7.70852 19.25 7.37273 19.25 6.95852C19.25 6.54431 19.5858 6.20852 20 6.20852H22Z"
      fill="#00B06C"/>
  </symbol>

  <symbol id="warning-icon" viewBox="0 0 24 24">
    <circle cx="12" cy="12" r="10" stroke="#00B06C" stroke-width="1.5"/>
    <path d="M12 17V11" stroke="#00B06C" stroke-width="1.5" stroke-linecap="round"/>
    <circle cx="1" cy="1" r="1" transform="matrix(1 0 0 -1 11 9)" fill="#00B06C"/>
  </symbol>

  <symbol id="close-icon" viewBox="0 0 20 20">
    <path
      fill-rule="evenodd"
      clip-rule="evenodd"
      d="M20 10C20 15.5228 15.5228 20 10 20C4.47715 20 0 15.5228 0 10C0 4.47715 4.47715 0 10 0C15.5228 0 20 4.47715 20 10ZM6.96963 6.96965C7.26252 6.67676 7.73739 6.67676 8.03029 6.96965L9.99997 8.93933L11.9696 6.96967C12.2625 6.67678 12.7374 6.67678 13.0303 6.96967C13.3232 7.26256 13.3232 7.73744 13.0303 8.03033L11.0606 9.99999L13.0303 11.9696C13.3232 12.2625 13.3232 12.7374 13.0303 13.0303C12.7374 13.3232 12.2625 13.3232 11.9696 13.0303L9.99997 11.0607L8.03031 13.0303C7.73742 13.3232 7.26254 13.3232 6.96965 13.0303C6.67676 12.7374 6.67676 12.2625 6.96965 11.9697L8.93931 9.99999L6.96963 8.03031C6.67673 7.73742 6.67673 7.26254 6.96963 6.96965Z"
      fill="#94A3B8"
    />
  </symbol>

  <symbol id="big-warning-icon" viewBox="0 0 57 56">
    <rect x="0.5" width="56" height="56" rx="28" fill="#E1FFF3"/>
    <circle cx="28.5" cy="28.0001" r="13.3333" stroke="#00B06C" stroke-width="3"/>
    <path d="M28.5 34.6667V26.6667" stroke="#00B06C" stroke-width="3" stroke-linecap="round"/>
    <circle cx="1.33333" cy="1.33333" r="1.33333" transform="matrix(1 0 0 -1 27.1667 24)" fill="#00B06C"/>
  </symbol>

  <symbol id="holder-icon" viewBox="0 0 50 8">
    <rect width="50" height="8" rx="4" fill="#E9E9E9"/>
  </symbol>

  <symbol id="airplane-icon" viewBox="0 0 24 24">
    <svg
      width="28"
      height="28"
      viewBox="0 0 20 20"
      fill="none"
    >
      <path
        d="M4.07033 13.3827L4.93044 11.5441C5.06323 11.267 4.96316 10.8935 4.70958 10.7199L3.0454 9.55766C2.77836 9.25652 2.83835 8.78492 3.17733 8.55605L3.95786 8.04323C4.14495 7.91718 4.46659 7.90692 4.66255 8.02006L6.52243 9.08842C6.6548 9.17028 6.88329 9.19878 7.0314 9.1591L8.86666 8.66734C9.13712 8.59487 9.21242 8.36074 9.04209 8.1372L6.82972 5.3412C6.48435 4.9023 6.63967 4.42587 7.18059 4.28093L8.01128 4.05835C8.44273 3.94274 9.02485 4.13186 9.29925 4.48624L11.8157 7.67009C11.8884 7.76104 12.0478 7.81496 12.1637 7.7839L14.0955 7.26627C14.7009 7.10407 15.5347 7.35687 15.9565 7.8236C16.1049 7.9909 16.1653 8.21628 16.1204 8.43535C15.9885 9.05046 15.3863 9.68804 14.781 9.85023L12.8492 10.3679C12.7332 10.3989 12.6222 10.5253 12.6047 10.6404L12.0156 14.6495C11.9616 15.0919 11.552 15.5467 11.1206 15.6623L10.2899 15.8849C9.74895 16.0299 9.37623 15.6949 9.45587 15.1421L9.97384 11.6145C10.0177 11.3405 9.8273 11.1707 9.55684 11.2431L7.72158 11.7349C7.57348 11.7746 7.38984 11.9135 7.31442 12.0442L6.23789 13.8993C6.12475 14.0953 5.84752 14.2455 5.61603 14.2316L4.68366 14.1777C4.27911 14.1619 3.98492 13.7852 4.07033 13.3827Z"
        stroke="#00B06C"
        stroke-linecap="round"
        stroke-linejoin="round"
      />
    </svg>
  </symbol>

  <symbol id="directions-airplane-icon" viewBox="0 0 30 30">
    <path
      d="M6.10586 20.0738L7.39603 17.3159C7.59522 16.9001 7.4451 16.3399 7.06474 16.0795L4.56848 14.3362C4.16791 13.8844 4.25789 13.177 4.76637 12.8337L5.93717 12.0645C6.21779 11.8754 6.70025 11.86 6.99419 12.0297L9.78402 13.6323C9.98257 13.7551 10.3253 13.7978 10.5475 13.7383L13.3004 13.0007C13.706 12.892 13.819 12.5408 13.5635 12.2055L10.2449 8.01147C9.7269 7.35311 9.95987 6.63846 10.7713 6.42106L12.0173 6.08718C12.6645 5.91377 13.5376 6.19744 13.9492 6.72903L17.7239 11.5048C17.833 11.6412 18.072 11.7221 18.2459 11.6755L21.1437 10.8991C22.0516 10.6558 23.3024 11.035 23.9352 11.7351C24.1577 11.986 24.2483 12.3241 24.181 12.6527C23.9831 13.5754 23.0799 14.5317 22.1719 14.775L19.2741 15.5515C19.1002 15.5981 18.9336 15.7876 18.9074 15.9603L18.0238 21.9739C17.9427 22.6375 17.3284 23.3198 16.6812 23.4932L15.4352 23.827C14.6238 24.0444 14.0647 23.542 14.1842 22.7129L14.9611 17.4215C15.027 17.0104 14.7413 16.7557 14.3356 16.8644L11.5827 17.602C11.3606 17.6615 11.0851 17.8699 10.972 18.0659L9.35721 20.8486C9.1875 21.1426 8.77164 21.3679 8.42442 21.3471L7.02586 21.2663C6.41903 21.2425 5.97775 20.6775 6.10586 20.0738Z"
      stroke="#666F8D"
      stroke-linecap="round"
      stroke-linejoin="round"
    />
  </symbol>

  <symbol id="direction-pointer-icon" viewBox="0 0 24 24">
    <line
      id="primary"
      x1="3"
      y1="12"
      x2="21"
      y2="12"
      style="fill: none;
                stroke: rgb(0, 0, 0);
                stroke-linecap: round;
                stroke-linejoin: round;
                stroke-width: 2;"
    ></line>
    <polyline
      id="primary-2"
      data-name="primary"
      points="18 15 21 12 18 9"
      style="fill: none;
                stroke: rgb(0, 0, 0);
                stroke-linecap: round;
                stroke-linejoin: round;
                stroke-width: 2;"
    ></polyline>
  </symbol>

  <symbol id="hand-luggage-icon" viewBox="0 0 20 20">
    <path
      fill-rule="evenodd"
      clip-rule="evenodd"
      d="M6.87511 5.01242C6.87503 5.00829 6.87499 5.00415 6.87499 5.00001V4.16667C6.87499 2.44078 8.2741 1.04167 9.99999 1.04167C11.7259 1.04167 13.125 2.44078 13.125 4.16667V5.00001C13.125 5.00415 13.1249 5.00829 13.1249 5.01242C14.1976 5.04462 14.854 5.16034 15.3551 5.57623C16.0494 6.15246 16.2323 7.12783 16.5981 9.07856L17.223 12.4119C17.7374 15.155 17.9945 16.5265 17.2448 17.4299C16.495 18.3333 15.0996 18.3333 12.3087 18.3333H7.69128C4.9004 18.3333 3.50496 18.3333 2.7552 17.4299C2.00543 16.5265 2.2626 15.155 2.77692 12.4119L3.40192 9.07856C3.76769 7.12783 3.95057 6.15246 4.64488 5.57623C5.146 5.16034 5.8024 5.04462 6.87511 5.01242ZM8.12499 4.16667C8.12499 3.13114 8.96445 2.29167 9.99999 2.29167C11.0355 2.29167 11.875 3.13114 11.875 4.16667V5.00001C11.875 5 11.875 5.00001 11.875 5.00001C11.8123 4.99998 11.7485 5.00001 11.6837 5.00001H8.31629C8.25147 5.00001 8.18771 5.00001 8.12499 5.00003C8.12499 5.00002 8.12499 5.00003 8.12499 5.00003V4.16667Z"
    />
  </symbol>

  <symbol id="cart-icon" viewBox="0 0 20 20">
    <path
      d="M7.97036 7.27541L8.39905 8.82713C8.80322 10.2901 9.00531 11.0216 9.59946 11.3543C10.1936 11.687 10.9478 11.491 12.4562 11.099L14.0561 10.6832C15.5645 10.2912 16.3187 10.0952 16.6617 9.51895C17.0048 8.94269 16.8027 8.2112 16.3985 6.74823L15.9698 5.1965C15.5656 3.73352 15.3636 3.00204 14.7694 2.66933C14.1752 2.33662 13.421 2.53262 11.9127 2.92462L10.3128 3.34041C8.80437 3.73241 8.05017 3.92841 7.70714 4.50468C7.3641 5.08095 7.56619 5.81244 7.97036 7.27541Z"
      fill="#00B06C"/>
    <path
      d="M1.89791 4.37245C1.99019 4.03984 2.33464 3.84501 2.66725 3.9373L4.087 4.3312C4.85107 4.54319 5.45575 5.13221 5.66669 5.89574L7.45922 12.3841L7.59112 12.8396C8.11874 13.0365 8.57191 13.4055 8.85953 13.8956L9.11785 13.8159L16.5096 11.8949C16.8437 11.8081 17.1849 12.0085 17.2717 12.3426C17.3586 12.6767 17.1581 13.0179 16.824 13.1047L9.45959 15.0186L9.18568 15.1031C9.18006 16.1623 8.44937 17.1295 7.34364 17.4169C6.01824 17.7613 4.65591 16.9985 4.30077 15.713C3.94563 14.4275 4.73218 13.1062 6.05757 12.7617C6.12325 12.7447 6.18902 12.7303 6.25475 12.7186L4.46182 6.22861C4.3716 5.90202 4.10748 5.6341 3.75281 5.5357L2.33307 5.1418C2.00045 5.04951 1.80563 4.70507 1.89791 4.37245Z"
      fill="#00B06C"/>
  </symbol>

  <symbol id="refund-icon" viewBox="0 0 20 20">
    <path
      fill-rule="evenodd"
      clip-rule="evenodd"
      d="M9.99999 18.3333C14.6024 18.3333 18.3333 14.6024 18.3333 10C18.3333 5.39763 14.6024 1.66667 9.99999 1.66667C5.39762 1.66667 1.66666 5.39763 1.66666 10C1.66666 14.6024 5.39762 18.3333 9.99999 18.3333ZM13.2788 4.65965C13.5142 4.75552 13.668 4.98435 13.668 5.23847V7.50057C13.668 7.84575 13.3882 8.12557 13.043 8.12557H10.8333C10.5819 8.12557 10.3549 7.97487 10.2573 7.74312C10.1597 7.51137 10.2105 7.24371 10.3863 7.06383L11.0208 6.41421C9.81624 6.04286 8.4556 6.3442 7.5008 7.32164C6.11083 8.74457 6.11083 11.0575 7.5008 12.4804C8.88278 13.8952 11.1172 13.8952 12.4992 12.4804C13.064 11.9022 13.4004 11.176 13.5057 10.4204C13.5543 10.0721 13.831 9.77913 14.1826 9.77913C14.5205 9.77913 14.8008 10.0496 14.7681 10.3859C14.6631 11.4672 14.2059 12.5221 13.3934 13.3539C11.521 15.2707 8.47901 15.2707 6.60662 13.3539C4.74222 11.4453 4.74222 8.35677 6.60662 6.44817C8.05458 4.96588 10.2033 4.62888 11.9705 5.44198L12.596 4.80173C12.7735 4.61995 13.0435 4.56378 13.2788 4.65965Z"
      fill="none"
    />
  </symbol>

  <symbol id="change-icon" viewBox="0 0 20 20">
    <path
      fill-rule="evenodd"
      clip-rule="evenodd"
      d="M18.3334 10C18.3334 14.6024 14.6024 18.3333 10 18.3333C5.39765 18.3333 1.66669 14.6024 1.66669 10C1.66669 5.39763 5.39765 1.66667 10 1.66667C14.6024 1.66667 18.3334 5.39763 18.3334 10ZM4.55049 9.23612C4.86111 6.4999 7.18672 4.37501 10.008 4.37501C11.79 4.37501 13.3741 5.22328 14.3767 6.53539C14.5863 6.80966 14.5339 7.2019 14.2596 7.41148C13.9853 7.62105 13.5931 7.56861 13.3835 7.29434C12.6074 6.27871 11.3844 5.62501 10.008 5.62501C7.87679 5.62501 6.11368 7.19349 5.8111 9.23612H6.11379C6.36666 9.23612 6.59461 9.38848 6.6913 9.62214C6.78798 9.85579 6.73435 10.1247 6.55543 10.3034L5.58188 11.2756C5.33787 11.5193 4.94261 11.5193 4.6986 11.2756L3.72505 10.3034C3.54612 10.1247 3.49249 9.85579 3.58918 9.62214C3.68587 9.38848 3.91382 9.23612 4.16669 9.23612H4.55049ZM15.3015 8.72443C15.0575 8.48075 14.6622 8.48075 14.4182 8.72443L13.4446 9.69665C13.2657 9.87533 13.2121 10.1442 13.3088 10.3779C13.4055 10.6115 13.6334 10.7639 13.8863 10.7639H14.189C13.8864 12.8065 12.1233 14.375 9.99207 14.375C8.62206 14.375 7.40405 13.7274 6.62744 12.7199C6.41671 12.4465 6.02425 12.3957 5.75087 12.6064C5.47748 12.8171 5.42668 13.2096 5.63741 13.483C6.64074 14.7846 8.2184 15.625 9.99207 15.625C12.8133 15.625 15.1389 13.5001 15.4496 10.7639H15.8334C16.0862 10.7639 16.3142 10.6115 16.4109 10.3779C16.5076 10.1442 16.4539 9.87533 16.275 9.69665L15.3015 8.72443Z"
      fill="none"
    />
  </symbol>

  <symbol id="time-icon" viewBox="0 0 25 24">
    <path
      d="M12.5 8V12L15 14.5"
      stroke="#00B06C"
      stroke-width="1.5"
      stroke-linecap="round"
      stroke-linejoin="round"
    />
    <path
      d="M6.1042 5.60423L5.57387 5.0739V5.0739L6.1042 5.60423ZM4.83782 6.87061L4.08783 6.87438C4.0899 7.28565 4.42279 7.61854 4.83405 7.6206L4.83782 6.87061ZM7.3796 7.6334C7.79381 7.63548 8.13128 7.30138 8.13336 6.88717C8.13545 6.47297 7.80135 6.1355 7.38714 6.13341L7.3796 7.6334ZM5.57502 4.32129C5.57294 3.90708 5.23547 3.57299 4.82126 3.57507C4.40705 3.57715 4.07296 3.91462 4.07504 4.32883L5.57502 4.32129ZM4.32667 10.785C4.38292 10.3746 4.09584 9.99636 3.68547 9.94011C3.27509 9.88386 2.89681 10.1709 2.84056 10.5813L4.32667 10.785ZM19.3623 5.13786C15.5421 1.31767 9.36879 1.27898 5.57387 5.0739L6.63453 6.13456C9.83364 2.93546 15.0572 2.95404 18.3016 6.19852L19.3623 5.13786ZM5.63783 18.8623C9.45802 22.6825 15.6313 22.7212 19.4262 18.9263L18.3656 17.8656C15.1665 21.0647 9.94297 21.0461 6.69849 17.8017L5.63783 18.8623ZM19.4262 18.9263C23.2212 15.1314 23.1825 8.95805 19.3623 5.13786L18.3016 6.19852C21.5461 9.443 21.5647 14.6665 18.3656 17.8656L19.4262 18.9263ZM5.57387 5.0739L4.30749 6.34028L5.36815 7.40094L6.63453 6.13456L5.57387 5.0739ZM4.83405 7.6206L7.3796 7.6334L7.38714 6.13341L4.84159 6.12062L4.83405 7.6206ZM5.58781 6.86684L5.57502 4.32129L4.07504 4.32883L4.08783 6.87438L5.58781 6.86684ZM2.84056 10.5813C2.43913 13.51 3.37398 16.5985 5.63783 18.8623L6.69849 17.8017C4.77792 15.8811 3.98669 13.2653 4.32667 10.785L2.84056 10.5813Z"
      fill="#00B06C"
    />
  </symbol>

  <symbol id="search-icon" viewBox="0 0 24 24">
    <path
      fill-rule="evenodd"
      clip-rule="evenodd"
      d="M11.5 2.75C6.66751 2.75 2.75 6.66751 2.75 11.5C2.75 16.3325 6.66751 20.25 11.5 20.25C16.3325 20.25 20.25 16.3325 20.25 11.5C20.25 6.66751 16.3325 2.75 11.5 2.75ZM1.25 11.5C1.25 5.83908 5.83908 1.25 11.5 1.25C17.1609 1.25 21.75 5.83908 21.75 11.5C21.75 14.0605 20.8111 16.4017 19.2589 18.1982L22.5303 21.4697C22.8232 21.7626 22.8232 22.2374 22.5303 22.5303C22.2374 22.8232 21.7626 22.8232 21.4697 22.5303L18.1982 19.2589C16.4017 20.8111 14.0605 21.75 11.5 21.75C5.83908 21.75 1.25 17.1609 1.25 11.5Z"
      fill="#666F8D"
    />
  </symbol>

  <symbol id="close-without-back-icon" viewBox="0 0 50 50">
    <path
      d="M 9.15625 6.3125 L 6.3125 9.15625 L 22.15625 25 L 6.21875 40.96875 L 9.03125 43.78125 L 25 27.84375 L 40.9375 43.78125 L 43.78125 40.9375 L 27.84375 25 L 43.6875 9.15625 L 40.84375 6.3125 L 25 22.15625 Z"/>
  </symbol>

  <symbol id="reset-input-icon" viewBox="0 0 50 50">
    <path
      d="M 9.15625 6.3125 L 6.3125 9.15625 L 22.15625 25 L 6.21875 40.96875 L 9.03125 43.78125 L 25 27.84375 L 40.9375 43.78125 L 43.78125 40.9375 L 27.84375 25 L 43.6875 9.15625 L 40.84375 6.3125 L 25 22.15625 Z"/>
  </symbol>

  <symbol id="minus-icon" viewBox="0 0 32 32">
    <rect width="32" height="32" rx="16" fill="#E3E6EA"/>
    <path d="M10 16H22" stroke="#666F8D" stroke-width="2" stroke-linecap="round" stroke-linejoin="round"/>
  </symbol>

  <symbol id="plus-icon" viewBox="0 0 32 32">
    <rect width="32" height="32" rx="16" fill="#00B06C"/>
    <path d="M9.5 16H21.5" stroke="white" stroke-width="2" stroke-linecap="round" stroke-linejoin="round"/>
    <path d="M15.5 22V10" stroke="white" stroke-width="2" stroke-linecap="round" stroke-linejoin="round"/>
  </symbol>

  <symbol id="clear-date-icon" viewBox="0 0 24 24">
    <path d="M12 22C17.5 22 22 17.5 22 12C22 6.5 17.5 2 12 2C6.5 2 2 6.5 2 12C2 17.5 6.5 22 12 22Z"
          stroke="#95A5A6" stroke-width="1.5" stroke-linecap="round" stroke-linejoin="round"/>
    <path d="M9.16998 14.83L14.83 9.17" stroke="#95A5A6" stroke-width="1.5" stroke-linecap="round"
          stroke-linejoin="round"/>
    <path d="M14.83 14.83L9.16998 9.17" stroke="#95A5A6" stroke-width="1.5" stroke-linecap="round"
          stroke-linejoin="round"/>
  </symbol>

  <symbol id="ticket-big-icon" viewBox="0 0 32 32">
    <path
      d="M18.6666 14.6667C18.6666 13.9303 19.2636 13.3333 20 13.3333C20.7363 13.3333 21.3333 13.9303 21.3333 14.6667V17.3333C21.3333 18.0697 20.7363 18.6667 20 18.6667C19.2636 18.6667 18.6666 18.0697 18.6666 17.3333V14.6667Z"
      stroke="#666F8D"
      stroke-width="1.5"
    />
    <path
      d="M18.6771 25.3372L17.9271 25.335V25.335L18.6771 25.3372ZM18.6849 22.6667L19.4349 22.6688V22.6667H18.6849ZM4.1994 25.1046L3.66973 25.6356H3.66973L4.1994 25.1046ZM4.1994 6.89543L3.66973 6.36444L4.1994 6.89543ZM3.9374 13.6715L3.57173 14.3264H3.57173L3.9374 13.6715ZM2.68073 11.986L1.93139 11.9545L2.68073 11.986ZM3.9374 18.3285L3.57173 17.6736H3.57173L3.9374 18.3285ZM2.68073 20.014L3.43007 19.9825L2.68073 20.014ZM28.0625 13.6715L28.4282 14.3264L28.0625 13.6715ZM29.3192 11.986L30.0685 11.9545V11.9545L29.3192 11.986ZM27.8005 6.89543L28.3302 6.36444L28.3302 6.36444L27.8005 6.89543ZM28.0625 18.3285L27.6968 18.9833L27.6968 18.9833L28.0625 18.3285ZM29.3192 20.014L30.0685 20.0455V20.0455L29.3192 20.014ZM27.8005 25.1046L28.3302 25.6356H28.3302L27.8005 25.1046ZM29.2582 19.1093L29.9126 18.743L29.9126 18.7429L29.2582 19.1093ZM29.2582 12.8907L29.9126 13.257L29.9126 13.257L29.2582 12.8907ZM2.74175 19.1093L2.08731 18.743L2.08731 18.743L2.74175 19.1093ZM2.74175 12.8907L3.39619 12.5244L3.39619 12.5244L2.74175 12.8907ZM18.6849 9.33333H19.4349L19.4349 9.33115L18.6849 9.33333ZM18.6752 5.99806L17.9252 6.00024V6.00024L18.6752 5.99806ZM22.037 5.35853L22.0563 4.60878L22.037 5.35853ZM22.7115 26.6189L22.7431 27.3682L22.7115 26.6189ZM18.4793 26.4721L17.9497 25.941L17.9497 25.941L18.4793 26.4721ZM19.4271 25.3394L19.4349 22.6688L17.9349 22.6645L17.9271 25.335L19.4271 25.3394ZM20.0215 22.0833C20.3473 22.0833 20.6082 22.3463 20.6082 22.6667H22.1082C22.1082 21.5143 21.1722 20.5833 20.0215 20.5833V22.0833ZM20.0215 20.5833C18.8709 20.5833 17.9349 21.5143 17.9349 22.6667H19.4349C19.4349 22.3463 19.6958 22.0833 20.0215 22.0833V20.5833ZM13.3266 6.08333H18.0069V4.58333H13.3266V6.08333ZM17.3438 25.9167H13.3266V27.4167H17.3438V25.9167ZM13.3266 25.9167C10.7851 25.9167 8.95416 25.9151 7.55964 25.7281C6.18651 25.5439 5.34941 25.1924 4.72907 24.5736L3.66973 25.6356C4.61537 26.5788 5.82147 27.0084 7.36026 27.2147C8.87766 27.4182 10.8274 27.4167 13.3266 27.4167V25.9167ZM13.3266 4.58333C10.8274 4.58333 8.87766 4.58174 7.36026 4.78525C5.82148 4.99162 4.61537 5.42114 3.66973 6.36444L4.72907 7.42641C5.34941 6.80761 6.18651 6.45609 7.55964 6.27194C8.95416 6.08491 10.7851 6.08333 13.3266 6.08333V4.58333ZM3.57173 14.3264C4.16169 14.6558 4.55672 15.2829 4.55672 16H6.05672C6.05672 14.7163 5.34718 13.5998 4.30308 13.0167L3.57173 14.3264ZM3.43007 12.0175C3.53425 9.5394 3.87173 8.28162 4.72907 7.42641L3.66973 6.36444C2.37062 7.66031 2.03642 9.45631 1.93139 11.9545L3.43007 12.0175ZM4.55672 16C4.55672 16.7171 4.16169 17.3442 3.57173 17.6736L4.30308 18.9833C5.34718 18.4002 6.05672 17.2837 6.05672 16H4.55672ZM1.93139 20.0455C2.03642 22.5437 2.37062 24.3397 3.66973 25.6356L4.72907 24.5736C3.87173 23.7184 3.53425 22.4606 3.43007 19.9825L1.93139 20.0455ZM27.4432 16C27.4432 15.2829 27.8382 14.6558 28.4282 14.3264L27.6968 13.0167C26.6527 13.5998 25.9432 14.7163 25.9432 16H27.4432ZM30.0685 11.9545C29.9635 9.4563 29.6293 7.66031 28.3302 6.36444L27.2708 7.42641C28.1282 8.28162 28.4657 9.5394 28.5699 12.0175L30.0685 11.9545ZM28.4282 17.6736C27.8382 17.3442 27.4432 16.7171 27.4432 16H25.9432C25.9432 17.2837 26.6527 18.4002 27.6968 18.9833L28.4282 17.6736ZM28.5699 19.9825C28.4657 22.4606 28.1282 23.7184 27.2708 24.5736L28.3302 25.6356C29.6293 24.3397 29.9635 22.5437 30.0685 20.0455L28.5699 19.9825ZM27.6968 18.9833C28.0727 19.1932 28.3272 19.3356 28.5015 19.4455C28.5877 19.4999 28.6345 19.5341 28.6575 19.5532C28.6867 19.5774 28.6462 19.5516 28.6037 19.4756L29.9126 18.7429C29.824 18.5847 29.703 18.4715 29.6144 18.3981C29.5195 18.3195 29.4111 18.2458 29.3018 18.1769C29.0852 18.0402 28.788 17.8745 28.4282 17.6736L27.6968 18.9833ZM30.0685 20.0455C30.0783 19.8124 30.0884 19.5892 30.0803 19.4054C30.0721 19.2195 30.0438 18.9774 29.9126 18.743L28.6037 19.4756C28.5647 19.4058 28.5772 19.3693 28.5817 19.4713C28.5863 19.5753 28.5808 19.7223 28.5699 19.9825L30.0685 20.0455ZM28.4282 14.3264C28.788 14.1254 29.0852 13.9597 29.3018 13.8231C29.4111 13.7542 29.5195 13.6805 29.6144 13.6019C29.703 13.5285 29.824 13.4153 29.9126 13.257L28.6037 12.5243C28.6462 12.4484 28.6867 12.4226 28.6575 12.4468C28.6345 12.4659 28.5877 12.5001 28.5015 12.5544C28.3272 12.6644 28.0727 12.8068 27.6968 13.0167L28.4282 14.3264ZM28.5699 12.0175C28.5808 12.2777 28.5863 12.4246 28.5817 12.5287C28.5772 12.6307 28.5647 12.5942 28.6037 12.5244L29.9126 13.257C30.0438 13.0226 30.0721 12.7805 30.0803 12.5946C30.0884 12.4108 30.0783 12.1876 30.0685 11.9545L28.5699 12.0175ZM3.57173 17.6736C3.21195 17.8745 2.9147 18.0402 2.69811 18.1769C2.58882 18.2458 2.48041 18.3195 2.38553 18.3981C2.29689 18.4715 2.1759 18.5847 2.08731 18.743L3.39619 19.4756C3.35367 19.5516 3.31321 19.5774 3.34245 19.5532C3.36544 19.5341 3.41225 19.4999 3.4984 19.4455C3.67269 19.3356 3.92718 19.1932 4.30308 18.9833L3.57173 17.6736ZM3.43007 19.9825C3.41912 19.7223 3.41361 19.5753 3.41818 19.4713C3.42267 19.3693 3.43526 19.4058 3.39619 19.4756L2.08731 18.743C1.9561 18.9774 1.92781 19.2195 1.91963 19.4054C1.91155 19.5892 1.92159 19.8124 1.93139 20.0455L3.43007 19.9825ZM4.30308 13.0167C3.92718 12.8068 3.67268 12.6644 3.4984 12.5544C3.41225 12.5001 3.36544 12.4659 3.34245 12.4468C3.31322 12.4226 3.35367 12.4484 3.39619 12.5244L2.08731 13.257C2.1759 13.4153 2.29689 13.5285 2.38553 13.6019C2.48041 13.6805 2.58882 13.7542 2.69811 13.8231C2.91469 13.9597 3.21195 14.1254 3.57173 14.3264L4.30308 13.0167ZM1.93139 11.9545C1.92159 12.1876 1.91155 12.4108 1.91963 12.5946C1.92781 12.7805 1.9561 13.0226 2.08731 13.257L3.39619 12.5244C3.43526 12.5941 3.42267 12.6307 3.41818 12.5287C3.41361 12.4246 3.41912 12.2777 3.43007 12.0175L1.93139 11.9545ZM19.4349 9.33115L19.4252 5.99588L17.9252 6.00024L17.9349 9.33551L19.4349 9.33115ZM20.0215 9.91666C19.6958 9.91666 19.4349 9.65374 19.4349 9.33333H17.9349C17.9349 10.4857 18.8709 11.4167 20.0215 11.4167V9.91666ZM20.6082 9.33333C20.6082 9.65374 20.3473 9.91666 20.0215 9.91666V11.4167C21.1722 11.4167 22.1082 10.4857 22.1082 9.33333H20.6082ZM20.6082 6.02157V9.33333H22.1082V6.02157H20.6082ZM22.0177 6.10828C24.9283 6.18335 26.3354 6.49325 27.2709 7.42642L28.3302 6.36444C26.9251 4.96285 24.9256 4.68278 22.0563 4.60878L22.0177 6.10828ZM22.1082 6.02157C22.1082 6.06839 22.0695 6.10962 22.0177 6.10828L22.0563 4.60878C21.2589 4.58821 20.6082 5.23074 20.6082 6.02157H22.1082ZM18.0069 6.08333C17.9636 6.08333 17.9253 6.04792 17.9252 6.00024L19.4252 5.99589C19.4229 5.21334 18.7868 4.58333 18.0069 4.58333V6.08333ZM22.7431 27.3682C25.2392 27.2627 27.034 26.9285 28.3302 25.6356L27.2709 24.5736C26.4147 25.4276 25.1556 25.7649 22.6798 25.8695L22.7431 27.3682ZM20.6082 22.6667V25.302H22.1082V22.6667H20.6082ZM17.9271 25.335C17.9262 25.6696 17.9241 25.8452 17.9077 25.9648C17.8942 26.0627 17.8848 26.0057 17.9497 25.941L19.0088 27.0032C19.2688 26.7439 19.3575 26.4328 19.3937 26.1687C19.427 25.9262 19.4263 25.6316 19.4271 25.3394L17.9271 25.335ZM17.3438 27.4167C17.6361 27.4167 17.9306 27.4182 18.1733 27.3857C18.4375 27.3502 18.7488 27.2624 19.0088 27.0032L17.9497 25.941C18.0146 25.8763 18.0716 25.8858 17.9736 25.899C17.854 25.9151 17.6784 25.9167 17.3438 25.9167V27.4167ZM22.6798 25.8695C22.3434 25.8837 22.1701 25.8893 22.0522 25.8777C21.9602 25.8687 22.018 25.8586 22.0825 25.9204L21.0445 27.0033C21.3144 27.262 21.632 27.3436 21.9055 27.3705C22.1531 27.3949 22.4511 27.3805 22.7431 27.3682L22.6798 25.8695ZM20.6082 25.302C20.6082 25.6011 20.6065 25.9033 20.641 26.1519C20.6787 26.4239 20.7722 26.7422 21.0445 27.0033L22.0825 25.9204C22.1495 25.9846 22.1404 26.044 22.1268 25.9459C22.1099 25.8242 22.1082 25.6449 22.1082 25.302H20.6082Z"
      fill="#666F8D"/>
  </symbol>

  <symbol id="settings-icon" viewBox="0 0 24 24">
    <path fill-rule="evenodd" clip-rule="evenodd"
          d="M18.25 7C18.25 9.07107 16.5711 10.75 14.5 10.75C12.4289 10.75 10.75 9.07107 10.75 7C10.75 4.92893 12.4289 3.25 14.5 3.25C16.5711 3.25 18.25 4.92893 18.25 7ZM14.5 9.25C15.7426 9.25 16.75 8.24264 16.75 7C16.75 5.75736 15.7426 4.75 14.5 4.75C13.2574 4.75 12.25 5.75736 12.25 7C12.25 8.24264 13.2574 9.25 14.5 9.25Z"
          fill="#00B06C"/>
    <path fill-rule="evenodd" clip-rule="evenodd"
          d="M5.75 17C5.75 19.0711 7.42893 20.75 9.5 20.75C11.5711 20.75 13.25 19.0711 13.25 17C13.25 14.9289 11.5711 13.25 9.5 13.25C7.42893 13.25 5.75 14.9289 5.75 17ZM9.5 19.25C8.25736 19.25 7.25 18.2426 7.25 17C7.25 15.7574 8.25736 14.75 9.5 14.75C10.7426 14.75 11.75 15.7574 11.75 17C11.75 18.2426 10.7426 19.25 9.5 19.25Z"
          fill="#00B06C"/>
    <path
      d="M14.25 16.9585C14.25 16.5443 14.5858 16.2085 15 16.2085H22C22.4142 16.2085 22.75 16.5443 22.75 16.9585C22.75 17.3727 22.4142 17.7085 22 17.7085H15C14.5858 17.7085 14.25 17.3727 14.25 16.9585Z"
      fill="#00B06C"/>
    <path
      d="M9 6.20852C9.41421 6.20852 9.75 6.54431 9.75 6.95852C9.75 7.37273 9.41421 7.70852 9 7.70852L2 7.70852C1.58579 7.70852 1.25 7.37273 1.25 6.95852C1.25 6.54431 1.58579 6.20852 2 6.20852L9 6.20852Z"
      fill="#00B06C"/>
    <path
      d="M1.25 16.9585C1.25 16.5443 1.58579 16.2085 2 16.2085H4C4.41421 16.2085 4.75 16.5443 4.75 16.9585C4.75 17.3727 4.41421 17.7085 4 17.7085H2C1.58579 17.7085 1.25 17.3727 1.25 16.9585Z"
      fill="#00B06C"/>
    <path
      d="M22 6.20852C22.4142 6.20852 22.75 6.54431 22.75 6.95852C22.75 7.37273 22.4142 7.70852 22 7.70852H20C19.5858 7.70852 19.25 7.37273 19.25 6.95852C19.25 6.54431 19.5858 6.20852 20 6.20852H22Z"
      fill="#00B06C"/>
  </symbol>

  <symbol id="big-succeed-icon" viewBox="0 0 48 48">
    <linearGradient id="HoiJCu43QtshzIrYCxOfCa" x1="21.241" x2="3.541" y1="39.241" y2="21.541"
                    gradientUnits="userSpaceOnUse">
      <stop offset=".108" stop-color="#0d7044"/>
      <stop offset=".433" stop-color="#11945a"/>
    </linearGradient>
    <path fill="url(#HoiJCu43QtshzIrYCxOfCa)"
          d="M16.599,41.42L1.58,26.401c-0.774-0.774-0.774-2.028,0-2.802l4.019-4.019	c0.774-0.774,2.028-0.774,2.802,0L23.42,34.599c0.774,0.774,0.774,2.028,0,2.802l-4.019,4.019	C18.627,42.193,17.373,42.193,16.599,41.42z"/>
    <linearGradient id="HoiJCu43QtshzIrYCxOfCb" x1="-15.77" x2="26.403" y1="43.228" y2="43.228"
                    gradientTransform="rotate(134.999 21.287 38.873)" gradientUnits="userSpaceOnUse">
      <stop offset="0" stop-color="#2ac782"/>
      <stop offset="1" stop-color="#21b876"/>
    </linearGradient>
    <path fill="url(#HoiJCu43QtshzIrYCxOfCb)"
          d="M12.58,34.599L39.599,7.58c0.774-0.774,2.028-0.774,2.802,0l4.019,4.019	c0.774,0.774,0.774,2.028,0,2.802L19.401,41.42c-0.774,0.774-2.028,0.774-2.802,0l-4.019-4.019	C11.807,36.627,11.807,35.373,12.58,34.599z"/>
  </symbol>

  <symbol id="edit-icon" viewBox="0 0 24 24">
    <path
      d="M16.652 3.45506L17.3009 2.80624C18.3759 1.73125 20.1188 1.73125 21.1938 2.80624C22.2687 3.88124 22.2687 5.62415 21.1938 6.69914L20.5449 7.34795M16.652 3.45506C16.652 3.45506 16.7331 4.83379 17.9497 6.05032C19.1662 7.26685 20.5449 7.34795 20.5449 7.34795M16.652 3.45506L10.6872 9.41993C10.2832 9.82394 10.0812 10.0259 9.90743 10.2487C9.70249 10.5114 9.52679 10.7957 9.38344 11.0965C9.26191 11.3515 9.17157 11.6225 8.99089 12.1646L8.41242 13.9M20.5449 7.34795L14.5801 13.3128C14.1761 13.7168 13.9741 13.9188 13.7513 14.0926C13.4886 14.2975 13.2043 14.4732 12.9035 14.6166C12.6485 14.7381 12.3775 14.8284 11.8354 15.0091L10.1 15.5876M10.1 15.5876L8.97709 15.9619C8.71035 16.0508 8.41626 15.9814 8.21744 15.7826C8.01862 15.5837 7.9492 15.2897 8.03811 15.0229L8.41242 13.9M10.1 15.5876L8.41242 13.9"
      stroke="#00B06C" stroke-width="1.5"/>
    <path d="M22 12C22 17.5228 17.5228 22 12 22C6.47715 22 2 17.5228 2 12C2 6.47715 6.47715 2 12 2" stroke="#00B06C"
          stroke-width="1.5" stroke-linecap="round"/>
  </symbol>

  <symbol id="delete-icon" viewBox="0 0 24 24">
    <path d="M9.17065 4C9.58249 2.83481 10.6937 2 11.9999 2C13.3062 2 14.4174 2.83481 14.8292 4" stroke="#FF1216"
          stroke-width="1.5" stroke-linecap="round"/>
    <path d="M20.5 6H3.49992" stroke="#FF1216" stroke-width="1.5" stroke-linecap="round"/>
    <path
      d="M18.8333 8.5L18.3734 15.3991C18.1964 18.054 18.1079 19.3815 17.2429 20.1907C16.3779 21 15.0475 21 12.3867 21H11.6133C8.95251 21 7.62211 21 6.7571 20.1907C5.8921 19.3815 5.8036 18.054 5.6266 15.3991L5.16666 8.5"
      stroke="#FF1216" stroke-width="1.5" stroke-linecap="round"/>
    <path d="M9.5 11L10 16" stroke="#FF1216" stroke-width="1.5" stroke-linecap="round"/>
    <path d="M14.5 11L14 16" stroke="#FF1216" stroke-width="1.5" stroke-linecap="round"/>
  </symbol>

  <symbol id="passenger-avatar-icon" viewBox="0 0 32 32">
    <path
      fill-rule="evenodd"
      clip-rule="evenodd"
      d="M29.3333 16C29.3333 23.3638 23.3638 29.3333 16 29.3333C8.63616 29.3333 2.66663 23.3638 2.66663 16C2.66663 8.63616 8.63616 2.66663 16 2.66663C23.3638 2.66663 29.3333 8.63616 29.3333 16ZM20 12C20 14.2091 18.2091 16 16 16C13.7908 16 12 14.2091 12 12C12 9.79082 13.7908 7.99996 16 7.99996C18.2091 7.99996 20 9.79082 20 12ZM15.9999 27.3333C18.3787 27.3333 20.5862 26.6005 22.4092 25.3482C23.2143 24.7952 23.5584 23.7416 23.0903 22.8843C22.1199 21.107 20.1203 20 15.9999 20C11.8795 20 9.87992 21.1069 8.90948 22.8842C8.44135 23.7415 8.78543 24.7951 9.59057 25.3481C11.4135 26.6004 13.6212 27.3333 15.9999 27.3333Z"
      fill="#CBD5E1"
    />
  </symbol>

  <symbol id="arrow-right-icon" viewBox="0 0 18 18">
    <path
      d="M6.75 3.06L11.64 7.95C12.2175 8.5275 12.2175 9.4725 11.64 10.05L6.74999 14.94"
      stroke="#1D2935"
      stroke-width="1.5"
      stroke-miterlimit="10"
      stroke-linecap="round"
      stroke-linejoin="round"
    />
  </symbol>
</svg>
